<svg id="wave" style="transform:rotate(180deg); transition: 0.3s" viewBox="0 0 1440 170" version="1.1" xmlns="http://www.w3.org/2000/svg"><defs><linearGradient id="sw-gradient-0" x1="0" x2="0" y1="1" y2="0"><stop stop-color="rgba(145, 67, 33, 1)" offset="0%"></stop><stop stop-color="rgba(41.302, 20.1, 10.858, 1)" offset="100%"></stop></linearGradient></defs><path style="transform:translate(0, 0px); opacity:1" fill="url(#sw-gradient-0)" d="M0,102L40,110.5C80,119,160,136,240,127.5C320,119,400,85,480,62.3C560,40,640,28,720,42.5C800,57,880,96,960,102C1040,108,1120,79,1200,68C1280,57,1360,62,1440,56.7C1520,51,1600,34,1680,31.2C1760,28,1840,40,1920,48.2C2000,57,2080,62,2160,68C2240,74,2320,79,2400,70.8C2480,62,2560,40,2640,51C2720,62,2800,108,2880,113.3C2960,119,3040,85,3120,76.5C3200,68,3280,85,3360,85C3440,85,3520,68,3600,65.2C3680,62,3760,74,3840,68C3920,62,4000,40,4080,31.2C4160,23,4240,28,4320,28.3C4400,28,4480,23,4560,17C4640,11,4720,6,4800,22.7C4880,40,4960,79,5040,93.5C5120,108,5200,96,5280,90.7C5360,85,5440,85,5520,93.5C5600,102,5680,119,5720,127.5L5760,136L5760,170L5720,170C5680,170,5600,170,5520,170C5440,170,5360,170,5280,170C5200,170,5120,170,5040,170C4960,170,4880,170,4800,170C4720,170,4640,170,4560,170C4480,170,4400,170,4320,170C4240,170,4160,170,4080,170C4000,170,3920,170,3840,170C3760,170,3680,170,3600,170C3520,170,3440,170,3360,170C3280,170,3200,170,3120,170C3040,170,2960,170,2880,170C2800,170,2720,170,2640,170C2560,170,2480,170,2400,170C2320,170,2240,170,2160,170C2080,170,2000,170,1920,170C1840,170,1760,170,1680,170C1600,170,1520,170,1440,170C1360,170,1280,170,1200,170C1120,170,1040,170,960,170C880,170,800,170,720,170C640,170,560,170,480,170C400,170,320,170,240,170C160,170,80,170,40,170L0,170Z"></path></svg>